<mxfile host="app.diagrams.net" agent="Mozilla/5.0 (Windows NT 10.0; Win64; x64) AppleWebKit/537.36 (KHTML, like Gecko) Chrome/139.0.0.0 Safari/537.36" version="28.1.2">
  <diagram name="PÃ¡gina-1" id="DYc4lIH631kttrtblsLY">
    <mxGraphModel dx="957" dy="579" grid="1" gridSize="10" guides="1" tooltips="1" connect="1" arrows="1" fold="1" page="1" pageScale="1" pageWidth="850" pageHeight="1100" math="0" shadow="0">
      <root>
        <mxCell id="0" />
        <mxCell id="1" parent="0" />
        <mxCell id="DynApxrbSdWDskNLjXVh-13" value="" style="rounded=0;orthogonalLoop=1;jettySize=auto;html=1;endArrow=none;endFill=0;exitX=1;exitY=0.3333333333333333;exitDx=0;exitDy=0;exitPerimeter=0;" parent="1" target="DynApxrbSdWDskNLjXVh-12" edge="1" source="DynApxrbSdWDskNLjXVh-1">
          <mxGeometry relative="1" as="geometry">
            <mxPoint x="188" y="156" as="sourcePoint" />
          </mxGeometry>
        </mxCell>
        <mxCell id="DynApxrbSdWDskNLjXVh-16" style="rounded=0;orthogonalLoop=1;jettySize=auto;html=1;endArrow=none;endFill=0;" parent="1" source="DynApxrbSdWDskNLjXVh-1" target="DynApxrbSdWDskNLjXVh-15" edge="1">
          <mxGeometry relative="1" as="geometry" />
        </mxCell>
        <mxCell id="DynApxrbSdWDskNLjXVh-27" style="rounded=0;orthogonalLoop=1;jettySize=auto;html=1;entryX=0;entryY=0.5;entryDx=0;entryDy=0;endArrow=none;endFill=0;exitX=1;exitY=0.5;exitDx=0;exitDy=0;exitPerimeter=0;" parent="1" source="DynApxrbSdWDskNLjXVh-1" target="DynApxrbSdWDskNLjXVh-26" edge="1">
          <mxGeometry relative="1" as="geometry" />
        </mxCell>
        <mxCell id="nTQY5j28m0mWdjNG409H-3" style="rounded=0;orthogonalLoop=1;jettySize=auto;html=1;entryX=0;entryY=0.5;entryDx=0;entryDy=0;endArrow=none;endFill=0;" edge="1" parent="1" source="DynApxrbSdWDskNLjXVh-1" target="nTQY5j28m0mWdjNG409H-2">
          <mxGeometry relative="1" as="geometry" />
        </mxCell>
        <mxCell id="nTQY5j28m0mWdjNG409H-6" style="rounded=0;orthogonalLoop=1;jettySize=auto;html=1;entryX=0;entryY=0.5;entryDx=0;entryDy=0;endArrow=none;endFill=0;" edge="1" parent="1" source="DynApxrbSdWDskNLjXVh-1" target="nTQY5j28m0mWdjNG409H-5">
          <mxGeometry relative="1" as="geometry" />
        </mxCell>
        <mxCell id="DynApxrbSdWDskNLjXVh-1" value="Member" style="shape=umlActor;verticalLabelPosition=bottom;verticalAlign=top;html=1;outlineConnect=0;" parent="1" vertex="1">
          <mxGeometry x="118" y="160" width="30" height="60" as="geometry" />
        </mxCell>
        <mxCell id="DynApxrbSdWDskNLjXVh-2" value="" style="rounded=0;whiteSpace=wrap;html=1;fillColor=none;" parent="1" vertex="1">
          <mxGeometry x="228" y="76" width="230" height="494" as="geometry" />
        </mxCell>
        <mxCell id="DynApxrbSdWDskNLjXVh-12" value="Borrow a&lt;div&gt;book&lt;/div&gt;" style="ellipse;whiteSpace=wrap;html=1;verticalAlign=top;" parent="1" vertex="1">
          <mxGeometry x="298" y="86" width="80" height="40" as="geometry" />
        </mxCell>
        <mxCell id="DynApxrbSdWDskNLjXVh-14" value="Library Management System&amp;nbsp;" style="rounded=0;whiteSpace=wrap;html=1;" parent="1" vertex="1">
          <mxGeometry x="228" y="30" width="230" height="40" as="geometry" />
        </mxCell>
        <mxCell id="DynApxrbSdWDskNLjXVh-15" value="Return a&lt;div&gt;book&lt;/div&gt;" style="ellipse;whiteSpace=wrap;html=1;verticalAlign=top;" parent="1" vertex="1">
          <mxGeometry x="298" y="136" width="80" height="40" as="geometry" />
        </mxCell>
        <mxCell id="DynApxrbSdWDskNLjXVh-21" style="rounded=0;orthogonalLoop=1;jettySize=auto;html=1;exitX=0;exitY=0.5;exitDx=0;exitDy=0;endArrow=none;endFill=0;" parent="1" source="DynApxrbSdWDskNLjXVh-20" edge="1" target="DynApxrbSdWDskNLjXVh-1">
          <mxGeometry relative="1" as="geometry">
            <mxPoint x="188" y="156" as="targetPoint" />
          </mxGeometry>
        </mxCell>
        <mxCell id="DynApxrbSdWDskNLjXVh-20" value="Borrowing&amp;nbsp;&lt;div&gt;history&lt;/div&gt;" style="ellipse;whiteSpace=wrap;html=1;verticalAlign=top;" parent="1" vertex="1">
          <mxGeometry x="298" y="186" width="80" height="40" as="geometry" />
        </mxCell>
        <mxCell id="DynApxrbSdWDskNLjXVh-23" style="rounded=0;orthogonalLoop=1;jettySize=auto;html=1;endArrow=none;endFill=0;" parent="1" source="DynApxrbSdWDskNLjXVh-22" target="DynApxrbSdWDskNLjXVh-12" edge="1">
          <mxGeometry relative="1" as="geometry" />
        </mxCell>
        <mxCell id="DynApxrbSdWDskNLjXVh-24" style="rounded=0;orthogonalLoop=1;jettySize=auto;html=1;endArrow=none;endFill=0;" parent="1" source="DynApxrbSdWDskNLjXVh-22" target="DynApxrbSdWDskNLjXVh-15" edge="1">
          <mxGeometry relative="1" as="geometry" />
        </mxCell>
        <mxCell id="DynApxrbSdWDskNLjXVh-28" style="rounded=0;orthogonalLoop=1;jettySize=auto;html=1;entryX=1;entryY=0.5;entryDx=0;entryDy=0;endArrow=none;endFill=0;" parent="1" source="DynApxrbSdWDskNLjXVh-22" target="DynApxrbSdWDskNLjXVh-26" edge="1">
          <mxGeometry relative="1" as="geometry" />
        </mxCell>
        <mxCell id="DynApxrbSdWDskNLjXVh-30" style="rounded=0;orthogonalLoop=1;jettySize=auto;html=1;entryX=1;entryY=0.5;entryDx=0;entryDy=0;endArrow=none;endFill=0;" parent="1" source="DynApxrbSdWDskNLjXVh-22" target="DynApxrbSdWDskNLjXVh-29" edge="1">
          <mxGeometry relative="1" as="geometry" />
        </mxCell>
        <mxCell id="DynApxrbSdWDskNLjXVh-33" style="rounded=0;orthogonalLoop=1;jettySize=auto;html=1;entryX=1;entryY=0.5;entryDx=0;entryDy=0;endArrow=none;endFill=0;" parent="1" source="DynApxrbSdWDskNLjXVh-22" target="DynApxrbSdWDskNLjXVh-31" edge="1">
          <mxGeometry relative="1" as="geometry" />
        </mxCell>
        <mxCell id="DynApxrbSdWDskNLjXVh-35" style="rounded=0;orthogonalLoop=1;jettySize=auto;html=1;entryX=1;entryY=0.5;entryDx=0;entryDy=0;endArrow=none;endFill=0;" parent="1" source="DynApxrbSdWDskNLjXVh-22" target="DynApxrbSdWDskNLjXVh-34" edge="1">
          <mxGeometry relative="1" as="geometry" />
        </mxCell>
        <mxCell id="nTQY5j28m0mWdjNG409H-4" style="rounded=0;orthogonalLoop=1;jettySize=auto;html=1;entryX=1;entryY=0.5;entryDx=0;entryDy=0;endArrow=none;endFill=0;" edge="1" parent="1" source="DynApxrbSdWDskNLjXVh-22" target="nTQY5j28m0mWdjNG409H-2">
          <mxGeometry relative="1" as="geometry" />
        </mxCell>
        <mxCell id="DynApxrbSdWDskNLjXVh-22" value="Librarian" style="shape=umlActor;verticalLabelPosition=bottom;verticalAlign=top;html=1;outlineConnect=0;" parent="1" vertex="1">
          <mxGeometry x="548" y="150" width="30" height="64" as="geometry" />
        </mxCell>
        <mxCell id="DynApxrbSdWDskNLjXVh-26" value="Search Catalog" style="ellipse;whiteSpace=wrap;html=1;verticalAlign=top;" parent="1" vertex="1">
          <mxGeometry x="300" y="235" width="80" height="40" as="geometry" />
        </mxCell>
        <mxCell id="DynApxrbSdWDskNLjXVh-29" value="Add new&amp;nbsp;&lt;div&gt;book&lt;/div&gt;" style="ellipse;whiteSpace=wrap;html=1;verticalAlign=top;" parent="1" vertex="1">
          <mxGeometry x="300" y="283" width="80" height="40" as="geometry" />
        </mxCell>
        <mxCell id="DynApxrbSdWDskNLjXVh-31" value="Register&amp;nbsp;&lt;div&gt;member&lt;/div&gt;" style="ellipse;whiteSpace=wrap;html=1;verticalAlign=top;" parent="1" vertex="1">
          <mxGeometry x="301" y="329" width="80" height="40" as="geometry" />
        </mxCell>
        <mxCell id="DynApxrbSdWDskNLjXVh-34" value="Add book&lt;div&gt;copy&lt;/div&gt;" style="ellipse;whiteSpace=wrap;html=1;verticalAlign=top;" parent="1" vertex="1">
          <mxGeometry x="303" y="375" width="80" height="40" as="geometry" />
        </mxCell>
        <mxCell id="nTQY5j28m0mWdjNG409H-1" value="&lt;div style=&quot;text-align: justify;&quot;&gt;&lt;span style=&quot;background-color: light-dark(rgb(255, 255, 255), rgb(18, 18, 18)); color: light-dark(rgb(15, 17, 21), rgb(222, 223, 227)); font-family: quote-cjk-patch, Inter, system-ui, -apple-system, BlinkMacSystemFont, &amp;quot;Segoe UI&amp;quot;, Roboto, Oxygen, Ubuntu, Cantarell, &amp;quot;Open Sans&amp;quot;, &amp;quot;Helvetica Neue&amp;quot;, sans-serif; font-size: 16px; text-align: start;&quot;&gt;The Use Case Diagram covers the system&#39;s functionality with two actors and a total of nine use cases. Two use cases are specific to the Member actor. The Librarian actor has exclusive use cases for managing users and books. Some activities, such as borrowing a book or consulting the catalog, can be performed by both actors. This design reflects the real-world scenario where a librarian can perform tasks on behalf of a member.&lt;/span&gt;&lt;/div&gt;" style="rounded=0;whiteSpace=wrap;html=1;" vertex="1" parent="1">
          <mxGeometry x="90" y="610" width="540" height="140" as="geometry" />
        </mxCell>
        <mxCell id="nTQY5j28m0mWdjNG409H-2" value="Check fine" style="ellipse;whiteSpace=wrap;html=1;verticalAlign=top;" vertex="1" parent="1">
          <mxGeometry x="298" y="430" width="80" height="40" as="geometry" />
        </mxCell>
        <mxCell id="nTQY5j28m0mWdjNG409H-5" value="Pay fine" style="ellipse;whiteSpace=wrap;html=1;verticalAlign=top;" vertex="1" parent="1">
          <mxGeometry x="300" y="490" width="80" height="40" as="geometry" />
        </mxCell>
      </root>
    </mxGraphModel>
  </diagram>
</mxfile>
